Coordinates
version=1
nRows=10
nColumns=40
inDegrees=yes

Units are S.I. units (second, meters, Newtons, ...)
Angles are in degrees.

endheader
time	pelvis_tilt	pelvis_list	pelvis_rotation	pelvis_tx	pelvis_ty	pelvis_tz	hip_flexion_r	hip_adduction_r	hip_rotation_r	knee_angle_r	knee_angle_r_beta	ankle_angle_r	subtalar_angle_r	mtp_angle_r	hip_flexion_l	hip_adduction_l	hip_rotation_l	knee_angle_l	knee_angle_l_beta	ankle_angle_l	subtalar_angle_l	mtp_angle_l	lumbar_extension	lumbar_bending	lumbar_rotation	arm_flex_r	arm_add_r	arm_rot_r	elbow_flex_r	pro_sup_r	wrist_flex_r	wrist_dev_r	arm_flex_l	arm_add_l	arm_rot_l	elbow_flex_l	pro_sup_l	wrist_flex_l	wrist_dev_l
      5.26442857	     -0.90570494	     -4.83791959	      8.51408039	      0.95906876	      0.91478385	      0.53556478	     13.82008177	      5.17657271	     -9.51726538	     29.40365451	     29.40365451	     17.90926410	    -12.40728514	      0.10024823	     36.96565593	    -13.31091876	      7.98939538	     69.50952965	     69.50952965	      3.67581240	    -19.49196469	     19.34534312	    -11.94480319	      3.14187141	      0.34745936	     30.67765136	    -18.71894046	     -6.30209987	     51.41309422	     45.56434404	      0.00000000	      0.00000000	    -15.75362875	     -7.03337742	     14.28952106	     26.82297153	     43.35782982	      0.00000000	      0.00000000
      5.28635714	     -1.00029490	     -4.66920815	      9.43309118	      0.95770086	      0.91509745	      0.53584847	     13.55023768	      5.03556149	    -10.00779922	     29.12447332	     29.12447332	     18.00286028	    -12.83423934	      0.32957760	     37.39106965	    -12.85038034	      7.42970747	     66.72668787	     66.72668787	      5.58734780	    -19.52529700	     20.13965708	    -11.88688968	      3.24070363	      0.33973694	     33.77890649	    -18.84207614	     -6.67771453	     53.42865633	     45.52557118	      0.00000000	      0.00000000	    -16.80202669	     -6.66369090	     14.96096921	     26.99515069	     43.25468445	      0.00000000	      0.00000000
      5.30828571	     -1.38167309	     -4.47365649	     10.33773621	      0.95596827	      0.91558618	      0.53569802	     13.48347336	      4.76894055	    -10.57463647	     28.64159500	     28.64159500	     18.00494086	    -13.07040542	      0.48873837	     37.71523061	    -12.15711634	      6.85120146	     63.09265936	     63.09265936	      7.07833474	    -19.50537994	     20.19175516	    -11.51538463	      3.29709779	      0.76321256	     36.70978581	    -19.48229966	     -6.98794977	     54.83354027	     45.50510614	      0.00000000	      0.00000000	    -17.33099503	     -6.35886862	     15.20521736	     27.05028708	     43.21436560	      0.00000000	      0.00000000
      5.33021429	     -1.57074934	     -4.12244920	     11.22333925	      0.95431582	      0.91708197	      0.53516837	     12.94813963	      4.34149155	    -11.26711970	     27.78297270	     27.78297270	     17.92425710	    -12.90347778	      0.65609586	     37.26704088	    -11.21704417	      6.29713251	     58.58023012	     58.58023012	      8.22455978	    -19.40903594	     19.98244727	    -11.46351464	      3.19149775	      0.44183331	     39.65074413	    -19.22459090	     -7.24714060	     57.19095644	     45.44805994	      0.00000000	      0.00000000	    -18.03307307	     -6.09226458	     15.71065274	     27.24459957	     43.13667770	      0.00000000	      0.00000000
      5.35214286	     -2.06307489	     -3.90190246	     12.10422856	      0.95239706	      0.91837311	      0.53441547	     12.65868428	      3.93779321	    -12.19294918	     26.71076023	     26.71076023	     17.54977845	    -12.48682040	      0.03375025	     36.80529293	    -10.30500901	      5.86663629	     53.34455863	     53.34455863	      7.67647340	    -19.25072424	     16.20344686	    -11.12633548	      3.21895365	      1.01633086	     41.29762432	    -19.86009416	     -8.34787338	     61.57099644	     45.38305274	      0.00000000	      0.00000000	    -18.48593339	     -7.38175965	     23.07765912	     29.32599274	     42.51819736	      0.00000000	      0.00000000
      5.37407143	     -2.59735006	     -3.57342951	     12.87740628	      0.95034776	      0.91999109	      0.53341568	     12.35566265	      3.46536255	    -12.84466474	     25.57296602	     25.57296602	     17.31841503	    -12.19372658	      0.24657713	     36.13339505	     -9.13155948	      5.71708015	     47.89852861	     47.89852861	      7.91947241	    -18.84587445	     16.02322084	    -10.74063291	      3.05310971	      1.03757848	     43.95023272	    -19.98417638	     -8.41415743	     63.14496745	     45.34562803	      0.00000000	      0.00000000	    -18.59977096	     -7.26643364	     23.14371483	     29.41727637	     42.53092707	      0.00000000	      0.00000000
      5.39600000	     -2.97476620	     -3.35194177	     13.61763708	      0.94848338	      0.92177047	      0.53229635	     11.75391492	      3.09316965	    -13.83515890	     24.21878886	     24.21878886	     17.08012679	    -11.26163037	      0.18860383	     35.08077202	     -8.19983744	      5.66466968	     42.20474837	     42.20474837	      7.53587002	    -17.92053806	     14.39066343	    -10.59286148	      3.00306230	      0.73955369	     46.41187915	    -19.78377886	     -8.33686926	     65.51443075	     45.27618898	      0.00000000	      0.00000000	    -18.69591677	     -7.13622441	     23.20353890	     29.58822357	     42.56457158	      0.00000000	      0.00000000
      5.41792857	     -3.49209897	     -3.24310458	     14.23446482	      0.94672406	      0.92296715	      0.53126600	     11.33707810	      2.85437133	    -14.66723162	     22.85265490	     22.85265490	     16.53194031	    -10.59723486	     -0.81111911	     33.92752999	     -7.66880091	      5.15403523	     36.13217288	     36.13217288	      4.71154998	    -16.66162635	      7.01821181	    -10.23390831	      3.03076395	      1.29196335	     47.94013122	    -20.52714020	     -8.24673825	     69.07813459	     45.18341405	      0.00000000	      0.00000000	    -18.41261093	     -7.26671286	     23.11308169	     29.96631091	     42.80688142	      0.00000000	      0.00000000
      5.43985714	     -3.94054157	     -3.12100887	     14.74804907	      0.94506044	      0.92403916	      0.53021318	     10.96030224	      2.66392736	    -15.20225723	     21.72859626	     21.72859626	     16.33578691	    -10.14389686	     -0.71037688	     33.00334316	     -7.11879283	      4.79440712	     31.12592144	     31.12592144	      4.94112935	    -14.04544569	      7.38150139	     -9.92040217	      2.97838653	      1.30694552	     50.17801259	    -20.41133966	     -8.16211835	     70.32131828	     45.15160430	      0.00000000	      0.00000000	    -18.15897692	     -7.34098557	     23.13683027	     29.98793946	     42.83121846	      0.00000000	      0.00000000
      5.46178571	     -4.21113384	     -3.21076374	     15.18129606	      0.94371091	      0.92478654	      0.52919457	     10.36923628	      2.71607321	    -16.02571115	     20.49728679	     20.49728679	     16.12295642	     -9.10164684	     -0.98871468	     32.15388470	     -6.99108607	      4.16428335	     26.87591738	     26.87591738	      5.24003839	    -10.69623989	      7.23858784	     -9.81147722	      3.17482235	      1.25582977	     52.18863397	    -20.21739867	     -7.79310072	     72.23039070	     45.09202634	      0.00000000	      0.00000000	    -17.84442377	     -7.37647342	     23.11545509	     30.01485032	     42.89897304	      0.00000000	      0.00000000
